o Button
v -0.85 0.125 -0.85
v 0.85 0.125 -0.85
v 1 -0.05 -1
v -1 -0.05 -1
v 0.85 0.125 0.85
v 1 -0.05 1
v -0.85 0.125 0.85
v -1 -0.05 1
v -0.25 0.15 -0.8
v -0.3 0.15 -0.8
v -0.3 0.15 -0.3
v -0.25 0.15 -0.3
v 0.3 0.15 -0.8
v 0.25 0.15 -0.8
v 0.25 0.15 -0.3
v 0.3 0.15 -0.3
v -0.3 0.15 0.3
v -0.3 0.15 0.25
v -0.8 0.15 0.25
v -0.8 0.15 0.3
v 0.25 0.15 0.3
v 0.25 0.15 0.25
v -0.25 0.15 0.25
v -0.25 0.15 0.3
v 0.8 0.15 0.3
v 0.8 0.15 0.25
v 0.3 0.15 0.25
v 0.3 0.15 0.3
v 0.25 0.15 0.8
v 0.3 0.15 0.8
v -0.3 0.15 0.8
v -0.25 0.15 0.8
v -0.3 0.15 -0.25
v -0.8 0.15 -0.3
v -0.8 0.15 -0.25
v 0.25 0.15 -0.25
v -0.25 0.15 -0.25
v 0.8 0.15 -0.25
v 0.8 0.15 -0.3
v 0.3 0.15 -0.25
v -0.8 0.15 -0.8
v 0.8 0.15 -0.8
v 0.8 0.15 0.8
v -0.8 0.15 0.8
v -0.775 0.135355339059327 -0.325
v -0.775 0.135355339059327 -0.775
v -0.764644660940672 0.1 -0.335355339059327
v -0.764644660940672 0.1 -0.764644660940672
v -0.325 0.135355339059327 -0.325
v -0.335355339059327 0.1 -0.335355339059327
v -0.325 0.135355339059327 -0.775
v -0.335355339059327 0.1 -0.764644660940672
v -0.225 0.135355339059327 -0.325
v -0.225 0.135355339059327 -0.775
v -0.214644660940673 0.1 -0.335355339059327
v -0.214644660940673 0.1 -0.764644660940672
v 0.225 0.135355339059327 -0.325
v 0.214644660940673 0.1 -0.335355339059327
v 0.225 0.135355339059327 -0.775
v 0.214644660940673 0.1 -0.764644660940672
v 0.325 0.135355339059327 -0.325
v 0.325 0.135355339059327 -0.775
v 0.335355339059327 0.1 -0.335355339059327
v 0.335355339059327 0.1 -0.764644660940672
v 0.775 0.135355339059327 -0.325
v 0.764644660940672 0.1 -0.335355339059327
v 0.775 0.135355339059327 -0.775
v 0.764644660940672 0.1 -0.764644660940672
v 0.775 0.135355339059327 0.225
v 0.325 0.135355339059327 0.225
v 0.764644660940672 0.1 0.214644660940673
v 0.335355339059327 0.1 0.214644660940673
v 0.775 0.135355339059327 -0.225
v 0.764644660940672 0.1 -0.214644660940673
v 0.325 0.135355339059327 -0.225
v 0.335355339059327 0.1 -0.214644660940673
v -0.225 0.135355339059327 0.225
v -0.225 0.135355339059327 -0.225
v -0.214644660940673 0.1 0.214644660940673
v -0.214644660940673 0.1 -0.214644660940673
v 0.225 0.135355339059327 0.225
v 0.214644660940673 0.1 0.214644660940673
v 0.225 0.135355339059327 -0.225
v 0.214644660940673 0.1 -0.214644660940673
v -0.775 0.135355339059327 0.225
v -0.775 0.135355339059327 -0.225
v -0.764644660940672 0.1 0.214644660940673
v -0.764644660940672 0.1 -0.214644660940673
v -0.325 0.135355339059327 0.225
v -0.335355339059327 0.1 0.214644660940673
v -0.325 0.135355339059327 -0.225
v -0.335355339059327 0.1 -0.214644660940673
v -0.775 0.135355339059327 0.775
v -0.775 0.135355339059327 0.325
v -0.764644660940672 0.1 0.764644660940672
v -0.764644660940672 0.1 0.335355339059327
v -0.325 0.135355339059327 0.775
v -0.335355339059327 0.1 0.764644660940672
v -0.325 0.135355339059327 0.325
v -0.335355339059327 0.1 0.335355339059327
v -0.225 0.135355339059327 0.775
v -0.225 0.135355339059327 0.325
v -0.214644660940673 0.1 0.764644660940672
v -0.214644660940673 0.1 0.335355339059327
v 0.225 0.135355339059327 0.775
v 0.214644660940673 0.1 0.764644660940672
v 0.225 0.135355339059327 0.325
v 0.214644660940673 0.1 0.335355339059327
v 0.325 0.135355339059327 0.775
v 0.325 0.135355339059327 0.325
v 0.335355339059327 0.1 0.764644660940672
v 0.335355339059327 0.1 0.335355339059327
v 0.775 0.135355339059327 0.775
v 0.764644660940672 0.1 0.764644660940672
v 0.775 0.135355339059327 0.325
v 0.764644660940672 0.1 0.335355339059327
vt 0.55697569588 0.91544009802
vt 0.46155 0.91544009802
vt 0.46155 0.5337373145
vt 0.55697569588 0.5337373145
vt 0.74782708764 0.91544009802
vt 0.65240139176 0.91544009802
vt 0.65240139176 0.5337373145
vt 0.74782708764 0.5337373145
vt 0.46155 0.24746022686
vt 0.46155 0.34288592274
vt 0.07984721648 0.34288592274
vt 0.07984721648 0.24746022686
vt 0.72397066367 0.24746022686
vt 0.7001142397 0.34288592274
vt 0.60468854382 0.34288592274
vt 0.62854496779 0.24746022686
vt 0.84325278352 0.24746022686
vt 0.84325278352 0.34288592274
vt 0.77168351161 0.34288592274
vt 0.783611723595 0.24746022686
vt 0.74782708764 0.15203453098
vt 0.79553993558 0.15203453098
vt 0.46155 0.15203453098
vt 0.65240139176 0.15203453098
vt 0.46155 0.43831161862
vt 0.07984721648 0.5337373145
vt 0.07984721648 0.43831161862
vt 0.67625781573 0.43831161862
vt 0.58083211985 0.43831161862
vt 0.84325278352 0.43831161862
vt 0.84325278352 0.5337373145
vt 0.759755299625 0.43831161862
vn 0 0.650791373455968 -0.759256602365297
vn 0 0.650791373455969 -0.759256602365297
vn 0 0 0
vn 0.759256602365297 0.650791373455968 0
vn 0.759256602365297 0.650791373455969 0
vn 0 0.650791373455968 0.759256602365297
vn 0 0.650791373455969 0.759256602365297
vn -0.759256602365297 0.650791373455968 0
vn -0.759256602365297 0.650791373455969 0
vn 0 1 0
vn 0 0.894427190999916 -0.447213595499958
vn 0 0.894427190999916 -0.447213595499958
vn 0.447213595499958 0.894427190999916 0
vn 0.447213595499958 0.894427190999916 0
vn 0 0.894427190999916 0.447213595499958
vn 0 0.894427190999916 0.447213595499958
vn -0.447213595499958 0.894427190999916 0
vn -0.447213595499958 0.894427190999916 0
vn 0 0.05 0
vn 0.0353553390593274 0.0353553390593274 0
vn 0.0500000000000002 0 5.55111512312578E-17
vn 0 0.0353553390593274 -0.0353553390593274
vn 5.55111512312578E-17 0 -0.0499999999999999
vn -0.0353553390593274 0.0353553390593274 0
vn -0.0499999999999999 0 1.11022302462516E-16
vn 0 0.0353553390593274 0.0353553390593274
vn 1.11022302462516E-16 0 0.0500000000000002
vn 0.0353553390593274 0.0353553390593274 0
vn 0.05 0 5.55111512312578E-17
vn 0 0 -0.0499999999999999
vn -0.05 0 1.11022302462516E-16
vn 0 0 0.0500000000000002
vn 0.0499999999999999 0 5.55111512312578E-17
vn -1.11022302462516E-16 0 -0.0499999999999999
vn -0.0353553390593274 0.0353553390593274 0
vn -0.0500000000000002 0 1.11022302462516E-16
vn -5.55111512312578E-17 0 0.0500000000000002
vn -1.11022302462516E-16 0 -0.05
vn -0.0500000000000002 0 0
vn 0 0.0353553390593274 0.0353553390593274
vn -5.55111512312578E-17 0 0.05
vn 0.0499999999999999 0 0
vn 0.05 0 0
vn 0 0 -0.05
vn -0.05 0 0
vn 0 0 0.05
vn 0.0500000000000002 0 0
vn 5.55111512312578E-17 0 -0.05
vn -0.0499999999999999 0 0
vn 1.11022302462516E-16 0 0.05
vn 0.0500000000000002 0 -1.11022302462516E-16
vn 0 0.0353553390593274 -0.0353553390593274
vn 5.55111512312578E-17 0 -0.0500000000000002
vn -0.0499999999999999 0 -5.55111512312578E-17
vn 1.11022302462516E-16 0 0.0499999999999999
vn 0.05 0 -1.11022302462516E-16
vn 0 0 -0.0500000000000002
vn -0.05 0 -5.55111512312578E-17
vn 0 0 0.0499999999999999
vn 0.0499999999999999 0 -1.11022302462516E-16
vn -1.11022302462516E-16 0 -0.0500000000000002
vn -0.0500000000000002 0 -5.55111512312578E-17
vn -5.55111512312578E-17 0 0.0499999999999999
g Button
f 1//1 2//1 3//2 4//2
f 4//3 3//3 3//3 4//3
f 2//4 5//4 6//5 3//5
f 3//3 6//3 6//3 3//3
f 5//6 7//6 8//7 6//7
f 6//3 8//3 8//3 6//3
f 7//8 1//8 4//9 8//9
f 8//3 4//3 4//3 8//3
f 9/1/10 10/2/10 11/3/10 12/4/10
f 13/5/10 14/6/10 15/7/10 16/8/10
f 17/9/10 18/10/10 19/11/10 20/12/10
f 21/13/10 22/14/10 23/15/10 24/16/10
f 25/17/10 26/18/10 27/19/10 28/20/10
f 21/13/10 29/21/10 30/22/10 28/20/10
f 28/20/10 27/19/10 22/14/10 21/13/10
f 17/9/10 31/23/10 32/24/10 24/16/10
f 24/16/10 23/15/10 18/10/10 17/9/10
f 33/25/10 11/3/10 34/26/10 35/27/10
f 36/28/10 15/7/10 12/4/10 37/29/10
f 38/30/10 39/31/10 16/8/10 40/32/10
f 37/29/10 12/4/10 11/3/10 33/25/10
f 33/25/10 18/10/10 23/15/10 37/29/10
f 40/32/10 16/8/10 15/7/10 36/28/10
f 36/28/10 22/14/10 27/19/10 40/32/10
f 1//11 41//12 10//12
f 1//11 10//12 9//12
f 2//11 1//11 9//12 14//12
f 13//12 42//12 2//11
f 2//11 14//12 13//12
f 2//13 42//14 39//14
f 2//13 39//14 38//14
f 5//13 2//13 38//14 26//14
f 25//14 43//14 5//13
f 5//13 26//14 25//14
f 5//15 43//16 30//16
f 5//15 30//16 29//16
f 7//15 5//15 29//16 32//16
f 31//16 44//16 7//15
f 7//15 32//16 31//16
f 7//17 44//18 20//18
f 7//17 20//18 19//18
f 1//17 7//17 19//18 35//18
f 34//18 41//18 1//17
f 1//17 35//18 34//18
f 41//19 34//19 45//20 46//20
f 46//20 45//20 47//21 48//21
f 48//21 47//21 47//21 48//21
f 34//19 11//19 49//22 45//22
f 45//22 49//22 50//23 47//23
f 47//23 50//23 50//23 47//23
f 11//19 10//19 51//24 49//24
f 49//24 51//24 52//25 50//25
f 50//25 52//25 52//25 50//25
f 10//19 41//19 46//26 51//26
f 51//26 46//26 48//27 52//27
f 52//27 48//27 48//27 52//27
f 9//19 12//19 53//28 54//28
f 54//28 53//28 55//29 56//29
f 56//29 55//29 55//29 56//29
f 12//19 15//19 57//22 53//22
f 53//22 57//22 58//30 55//30
f 55//30 58//30 58//30 55//30
f 15//19 14//19 59//24 57//24
f 57//24 59//24 60//31 58//31
f 58//31 60//31 60//31 58//31
f 14//19 9//19 54//26 59//26
f 59//26 54//26 56//32 60//32
f 60//32 56//32 56//32 60//32
f 13//19 16//19 61//28 62//28
f 62//28 61//28 63//33 64//33
f 64//33 63//33 63//33 64//33
f 16//19 39//19 65//22 61//22
f 61//22 65//22 66//34 63//34
f 63//34 66//34 66//34 63//34
f 39//19 42//19 67//35 65//35
f 65//35 67//35 68//36 66//36
f 66//36 68//36 68//36 66//36
f 42//19 13//19 62//26 67//26
f 67//26 62//26 64//37 68//37
f 68//37 64//37 64//37 68//37
f 27//19 26//19 69//22 70//22
f 70//22 69//22 71//38 72//38
f 72//38 71//38 71//38 72//38
f 26//19 38//19 73//35 69//35
f 69//35 73//35 74//39 71//39
f 71//39 74//39 74//39 71//39
f 38//19 40//19 75//40 73//40
f 73//40 75//40 76//41 74//41
f 74//41 76//41 76//41 74//41
f 40//19 27//19 70//28 75//28
f 75//28 70//28 72//42 76//42
f 76//42 72//42 72//42 76//42
f 37//19 23//19 77//28 78//28
f 78//28 77//28 79//43 80//43
f 80//43 79//43 79//43 80//43
f 23//19 22//19 81//22 77//22
f 77//22 81//22 82//44 79//44
f 79//44 82//44 82//44 79//44
f 22//19 36//19 83//24 81//24
f 81//24 83//24 84//45 82//45
f 82//45 84//45 84//45 82//45
f 36//19 37//19 78//40 83//40
f 83//40 78//40 80//46 84//46
f 84//46 80//46 80//46 84//46
f 35//19 19//19 85//20 86//20
f 86//20 85//20 87//47 88//47
f 88//47 87//47 87//47 88//47
f 19//19 18//19 89//22 85//22
f 85//22 89//22 90//48 87//48
f 87//48 90//48 90//48 87//48
f 18//19 33//19 91//24 89//24
f 89//24 91//24 92//49 90//49
f 90//49 92//49 92//49 90//49
f 33//19 35//19 86//40 91//40
f 91//40 86//40 88//50 92//50
f 92//50 88//50 88//50 92//50
f 20//19 44//19 93//20 94//20
f 94//20 93//20 95//51 96//51
f 96//51 95//51 95//51 96//51
f 44//19 31//19 97//52 93//52
f 93//52 97//52 98//53 95//53
f 95//53 98//53 98//53 95//53
f 31//19 17//19 99//24 97//24
f 97//24 99//24 100//54 98//54
f 98//54 100//54 100//54 98//54
f 17//19 20//19 94//40 99//40
f 99//40 94//40 96//55 100//55
f 100//55 96//55 96//55 100//55
f 24//19 32//19 101//28 102//28
f 102//28 101//28 103//56 104//56
f 104//56 103//56 103//56 104//56
f 32//19 29//19 105//52 101//52
f 101//52 105//52 106//57 103//57
f 103//57 106//57 106//57 103//57
f 29//19 21//19 107//24 105//24
f 105//24 107//24 108//58 106//58
f 106//58 108//58 108//58 106//58
f 21//19 24//19 102//40 107//40
f 107//40 102//40 104//59 108//59
f 108//59 104//59 104//59 108//59
f 28//19 30//19 109//28 110//28
f 110//28 109//28 111//60 112//60
f 112//60 111//60 111//60 112//60
f 30//19 43//19 113//52 109//52
f 109//52 113//52 114//61 111//61
f 111//61 114//61 114//61 111//61
f 43//19 25//19 115//35 113//35
f 113//35 115//35 116//62 114//62
f 114//62 116//62 116//62 114//62
f 25//19 28//19 110//40 115//40
f 115//40 110//40 112//63 116//63
f 116//63 112//63 112//63 116//63
#h 
